<?xml version="1.0" encoding="utf-8"?>
<!-- Generator: Adobe Illustrator 20.1.0, SVG Export Plug-In . SVG Version: 6.00 Build 0)  -->
<svg version="1.1" id="Capa_1" xmlns="http://www.w3.org/2000/svg" xmlns:xlink="http://www.w3.org/1999/xlink" x="0px" y="0px"
	 viewBox="0 0 409.6 409.6" style="enable-background:new 0 0 409.6 409.6;" xml:space="preserve">
<style type="text/css">
	.st0{fill:#3A556A;}
	.st1{fill:#64798A;}
	.st2{fill:#EBF0F3;}
	.st3{fill:#E1E6E9;}
	.st4{fill:#27A2DB;}
	.st5{fill:#FFFFFF;}
	.st6{fill:#E56353;}
	.st7{fill:#FCD462;}
	.st8{fill:#FF3333;}
	.st9{font-family:'MyriadPro-Regular';}
	.st10{font-size:45.9095px;}
</style>
<path class="st0" d="M0,393.8v11c0,2.6,2.1,4.8,4.8,4.8h400c2.6,0,4.8-2.1,4.8-4.8v-11H0z"/>
<polygon class="st1" points="362.5,332.9 47.1,332.9 0,393.8 409.6,393.8 "/>
<path class="st0" d="M351.5,129H58.1c-6,0-10.9,4.9-10.9,10.9v192.9h315.4V140C362.5,133.9,357.6,129,351.5,129z"/>
<rect x="69.5" y="151.4" class="st2" width="270.7" height="159.2"/>
<g>
	<polygon class="st3" points="340.1,151.4 182.5,151.4 275.4,310.6 340.1,310.6 	"/>
	<polygon class="st3" points="77.8,339.6 53.7,339.6 56.4,336.1 80,336.1 	"/>
	<polygon class="st3" points="122,339.6 98,339.6 99.8,336.1 123.4,336.1 	"/>
	<polygon class="st3" points="152.5,339.6 128.4,339.6 129.8,336.1 153.4,336.1 	"/>
	<polygon class="st3" points="183,339.6 158.9,339.6 159.7,336.1 183.3,336.1 	"/>
	<polygon class="st3" points="213.5,339.6 189.4,339.6 189.7,336.1 213.3,336.1 	"/>
	<polygon class="st3" points="263.7,339.6 239.6,339.6 239,336.1 262.7,336.1 	"/>
	<polygon class="st3" points="294.2,339.6 270.1,339.6 269,336.1 292.6,336.1 	"/>
	<polygon class="st3" points="324.7,339.6 300.6,339.6 298.9,336.1 322.6,336.1 	"/>
	<polygon class="st3" points="355.1,339.6 331.1,339.6 328.9,336.1 352.5,336.1 	"/>
	<polygon class="st3" points="72.6,347.8 47.5,347.8 51.6,342.5 75.9,342.5 	"/>
	<polygon class="st3" points="108.7,347.8 83.6,347.8 86.7,342.5 111.1,342.5 	"/>
	<polygon class="st3" points="144.8,347.8 119.7,347.8 121.9,342.5 146.3,342.5 	"/>
	<polygon class="st3" points="180.9,347.8 155.8,347.8 157.1,342.5 181.5,342.5 	"/>
	<polygon class="st3" points="217,347.8 191.9,347.8 192.2,342.5 216.6,342.5 	"/>
	<polygon class="st3" points="253.1,347.8 228,347.8 227.4,342.5 251.8,342.5 	"/>
	<polygon class="st3" points="289.2,347.8 264.1,347.8 262.6,342.5 287,342.5 	"/>
	<polygon class="st3" points="325.3,347.8 300.2,347.8 297.8,342.5 322.1,342.5 	"/>
	<polygon class="st3" points="361.4,347.8 336.3,347.8 332.9,342.5 357.3,342.5 	"/>
	<polygon class="st3" points="67.6,355.7 41.6,355.7 45.9,349.9 71.2,349.9 	"/>
	<polygon class="st3" points="105,355.7 79,355.7 82.4,349.9 107.7,349.9 	"/>
	<polygon class="st3" points="142.5,355.7 116.5,355.7 118.9,349.9 144.1,349.9 	"/>
	<polygon class="st3" points="180,355.7 154,355.7 155.3,349.9 180.6,349.9 	"/>
	<polygon class="st3" points="217.4,355.7 191.4,355.7 191.8,349.9 217.1,349.9 	"/>
	<polygon class="st3" points="254.9,355.7 228.9,355.7 228.3,349.9 253.5,349.9 	"/>
	<polygon class="st3" points="292.4,355.7 266.4,355.7 264.7,349.9 290,349.9 	"/>
	<polygon class="st3" points="329.8,355.7 303.8,355.7 301.2,349.9 326.5,349.9 	"/>
	<polygon class="st3" points="367.3,355.7 341.3,355.7 337.7,349.9 362.9,349.9 	"/>
	<polygon class="st3" points="82.2,364.2 35.2,364.2 39.9,357.9 85.6,357.9 	"/>
	<polygon class="st3" points="118.8,364.2 91.8,364.2 94.9,357.9 121.2,357.9 	"/>
	<polygon class="st3" points="157.8,364.2 130.8,364.2 132.8,357.9 159.1,357.9 	"/>
	<polygon class="st3" points="196.7,364.2 169.7,364.2 170.7,357.9 196.9,357.9 	"/>
	<polygon class="st3" points="235.6,364.2 208.6,364.2 208.5,357.9 234.8,357.9 	"/>
	<polygon class="st3" points="295.8,364.2 244,364.2 242.9,357.9 293.3,357.9 	"/>
	<polygon class="st3" points="334.8,364.2 307.8,364.2 304.9,357.9 331.1,357.9 	"/>
	<polygon class="st3" points="373.7,364.2 346.7,364.2 342.7,357.9 369,357.9 	"/>
	<polygon class="st3" points="56.4,373.3 28.2,373.3 33.3,366.6 60.6,366.6 	"/>
	<polygon class="st3" points="218.5,373.3 68.8,373.3 72.7,366.6 218.1,366.6 	"/>
	<polygon class="st3" points="259,373.3 230.9,373.3 230.1,366.6 257.5,366.6 	"/>
	<polygon class="st3" points="340.1,373.3 312,373.3 308.9,366.6 336.2,366.6 	"/>
	<polygon class="st3" points="380.6,373.3 352.5,373.3 348.2,366.6 375.5,366.6 	"/>
	<polygon class="st3" points="298,369.5 296.8,366.6 269.5,366.6 270.4,369.5 	"/>
	<polygon class="st3" points="270.6,370.3 271.4,373.3 299.6,373.3 298.3,370.3 	"/>
</g>
<polygon class="st0" points="246.3,388.9 163.3,388.9 168.6,375.8 241,375.8 "/>
<path class="st4" d="M228.3,2.1l-112.2,124c-2.4,2.6-2.2,6.6,0.4,9l76.6,69.3c2.6,2.4,6.6,2.2,9-0.4l112.2-124
	c2.4-2.6,2.2-6.6-0.4-9L237.3,1.6C234.7-0.7,230.7-0.5,228.3,2.1z"/>
<rect x="100.1" y="71.6" transform="matrix(0.671 -0.7415 0.7415 0.671 3.0365 167.3523)" class="st0" width="179.9" height="17.2"/>
<g>
	
		<rect x="148.6" y="134.3" transform="matrix(0.671 -0.7415 0.7415 0.671 -45.1456 173.3463)" class="st5" width="48.2" height="6.5"/>
	
		<rect x="160.5" y="142.5" transform="matrix(0.671 -0.7415 0.7415 0.671 -45.4064 189.133)" class="st5" width="59.8" height="6.5"/>
	
		<rect x="173.2" y="151.5" transform="matrix(0.671 -0.7415 0.7415 0.671 -46.1504 205.5072)" class="st5" width="70.7" height="6.5"/>
</g>
<ellipse class="st6" cx="272.7" cy="90.6" rx="11.2" ry="11.2"/>
<ellipse class="st7" cx="285.8" cy="76.2" rx="11.2" ry="11.2"/>
<g>
	<polygon class="st1" points="304.7,273.1 268.7,253.3 278.6,293.2 283.6,279.2 293.7,292.4 300,287.5 289.9,274.3 	"/>
	<rect x="267.6" y="236.3" class="st1" width="2.2" height="6.4"/>
	<rect x="267.6" y="262.6" class="st1" width="2.2" height="6.4"/>
	<rect x="278.7" y="251.5" class="st1" width="6.4" height="2.2"/>
	<rect x="252.4" y="251.5" class="st1" width="6.4" height="2.2"/>
	
		<rect x="274.8" y="242.2" transform="matrix(0.7071 -0.7071 0.7071 0.7071 -90.6169 267.8552)" class="st1" width="6.4" height="2.2"/>
	
		<rect x="256.2" y="260.8" transform="matrix(0.7071 -0.7071 0.7071 0.7071 -109.2111 260.1363)" class="st1" width="6.4" height="2.2"/>
	
		<rect x="276.9" y="258.7" transform="matrix(0.7071 -0.7071 0.7071 0.7071 -103.7491 273.2531)" class="st1" width="2.2" height="6.4"/>
	
		<rect x="258.4" y="240.1" transform="matrix(0.7071 -0.7071 0.7071 0.7071 -96.0602 254.7389)" class="st1" width="2.2" height="6.4"/>
</g>
<text transform="matrix(1.0728 0 0 1 143.6343 240.2773)" class="st8 st9 st10">G-pay</text>
</svg>
